<svg width="291" height="103" viewBox="0 0 291 103" fill="none" xmlns="http://www.w3.org/2000/svg">
<path d="M0.000220716 100.625L1.8349 93.9919C5.50425 93.7097 8.79726 92.9099 11.7139 91.5927C14.6306 90.2755 17.4532 88.2056 20.1817 85.3831C23.0043 82.5605 26.1091 78.797 29.4962 74.0927L81.9962 2.08616e-06H88.2059L107.117 80.4435C107.87 83.6425 108.811 86.2298 109.94 88.2056C111.069 90.0874 112.668 91.4987 114.738 92.4395C116.902 93.3804 119.725 93.8978 123.206 93.9919L121.23 100.625C118.407 100.437 114.691 100.343 110.081 100.343C105.565 100.249 100.249 100.202 94.1333 100.202C86.0419 100.202 79.1266 100.249 73.3873 100.343C67.6481 100.343 63.1319 100.437 59.8389 100.625L61.8147 93.9919C66.8013 93.8978 70.6588 93.4745 73.3873 92.7218C76.1158 91.9691 77.9034 90.746 78.7502 89.0524C79.597 87.2648 79.6911 84.9597 79.0325 82.1371L66.3309 28.3669L76.0688 18.629L40.5043 69.0121C36.4586 74.8454 33.8241 79.5968 32.601 83.2661C31.472 86.8414 31.9895 89.4758 34.1534 91.1694C36.4115 92.8629 40.3631 93.8038 46.0083 93.9919L44.0325 100.625C39.2341 100.437 34.718 100.343 30.4841 100.343C26.2502 100.249 22.2516 100.202 18.4881 100.202C15.4774 100.202 12.4666 100.249 9.45587 100.343C6.44511 100.343 3.29323 100.437 0.000220716 100.625ZM36.1293 71.6935L40.222 65.0605H83.2663L84.6776 71.6935H36.1293ZM152.309 102.601C142.713 102.601 135.139 99.9664 129.588 94.6976C124.131 89.4288 121.402 82.2312 121.402 73.1048C121.402 66.6129 122.719 60.4973 125.354 54.7581C128.082 49.0188 131.752 43.9382 136.362 39.5161C140.972 35.0941 146.288 31.6599 152.309 29.2137C158.331 26.6734 164.729 25.4032 171.503 25.4032C178.465 25.4032 183.969 26.7675 188.015 29.496C192.061 32.1304 194.084 35.7527 194.084 40.3629C194.084 43.5618 193.19 46.5255 191.402 49.254C189.709 51.8884 187.45 54.0524 184.628 55.746C181.805 57.4395 178.795 58.2863 175.596 58.2863C172.961 58.2863 170.844 57.7218 169.245 56.5927C167.739 55.3696 166.987 53.6761 166.987 51.5121C166.987 49.5363 167.598 47.8427 168.821 46.4315C170.045 45.0202 171.409 43.75 172.914 42.621C174.514 41.3979 175.878 40.2218 177.007 39.0927C178.23 37.9637 178.842 36.6465 178.842 35.1411C178.842 32.9772 177.289 31.8952 174.184 31.8952C170.891 31.8952 167.692 32.9772 164.588 35.1411C161.483 37.3051 158.66 40.2688 156.12 44.0323C153.579 47.7016 151.604 51.8414 150.192 56.4516C148.781 61.0618 148.075 65.8132 148.075 70.7056C148.075 76.8212 149.299 81.7137 151.745 85.3831C154.191 88.9583 157.813 90.746 162.612 90.746C166.281 90.746 169.527 89.8992 172.35 88.2056C175.266 86.5121 177.901 83.8777 180.253 80.3024H186.745C182.793 87.8293 177.995 93.4274 172.35 97.0968C166.799 100.766 160.118 102.601 152.309 102.601ZM225.465 102.601C216.527 102.601 210.129 100.013 206.272 94.8387C202.508 89.664 201.85 82.7016 204.296 73.9516L222.784 7.90323C228.147 7.99732 232.992 7.7621 237.32 7.19759C241.742 6.63307 245.976 5.73925 250.022 4.51613L228.852 80.5847C227.723 84.5363 227.676 87.5 228.711 89.4758C229.746 91.4516 231.816 92.4395 234.921 92.4395C237.367 92.4395 239.531 91.7809 241.413 90.4637C243.389 89.0524 245.176 86.7944 246.776 83.6895L249.175 79.1734H255.949L251.715 87.3589C249.834 90.746 247.623 93.5685 245.082 95.8266C242.542 98.0847 239.672 99.7782 236.473 100.907C233.274 102.036 229.605 102.601 225.465 102.601ZM198.51 34.0121L200.344 27.379H265.264L263.288 34.0121H198.51ZM274.618 102.601C270.573 102.601 267.233 101.519 264.598 99.3548C262.058 97.0968 260.788 94.2272 260.788 90.746C260.788 86.9825 262.246 83.8306 265.163 81.2903C268.173 78.6559 271.89 77.3387 276.312 77.3387C280.452 77.3387 283.839 78.4677 286.473 80.7258C289.108 82.8898 290.425 85.7124 290.425 89.1935C290.425 92.957 288.919 96.1559 285.909 98.7903C282.898 101.331 279.134 102.601 274.618 102.601Z" fill="#18020C"/>
</svg>
