<?xml version="1.0" encoding="UTF-8" standalone="no"?>
<!DOCTYPE svg PUBLIC "-//W3C//DTD SVG 1.1//EN" "http://www.w3.org/Graphics/SVG/1.1/DTD/svg11.dtd">
<svg width="100%" height="100%" viewBox="0 0 254 129" version="1.1" xmlns="http://www.w3.org/2000/svg" xmlns:xlink="http://www.w3.org/1999/xlink" xml:space="preserve" xmlns:serif="http://www.serif.com/" style="fill-rule:evenodd;clip-rule:evenodd;stroke-linejoin:round;stroke-miterlimit:2;">
    <g id="Artboard1" transform="matrix(0.949386,0,0,0.878602,-96.1706,-499.378)">
        <rect x="101.298" y="568.378" width="267.214" height="146.085" style="fill:none;"/>
        <g transform="matrix(1.05331,0,0,1.13817,101.64,567.923)">
            <path d="M171.079,94.969C171.544,95.353 172.427,96.175 172.427,96.175L172.471,96.214L172.491,96.227L172.51,96.241L172.555,96.275L172.559,96.278C173.982,97.345 175.523,99.145 175.523,101.732C175.523,102.385 175.384,102.963 175.316,103.236C175.227,103.592 175.113,103.968 174.989,104.34L174.988,104.342L174.938,104.49L174.918,104.552L174.891,104.61L174.826,104.751C171.428,112.249 166.306,118.019 159.456,121.866L159.427,121.883C152.787,125.559 144.572,127.312 136.935,127.312C130.408,127.312 124.353,125.907 118.853,123.038L118.808,123.015L118.789,123.005C113.435,120.095 108.876,116.238 105.144,111.457C101.437,106.707 98.719,101.378 96.992,95.505C95.265,89.633 94.634,83.589 95.093,77.401L95.093,77.397L95.094,77.386L95.096,77.358C95.881,68.04 98.494,60.071 103.176,53.709C107.674,47.595 113.18,42.995 119.692,40.035L119.702,40.03L119.711,40.026L119.732,40.018C126.119,37.168 132.601,35.704 139.147,35.704C146.477,35.704 152.817,36.808 157.916,39.295C162.777,41.666 166.709,44.85 169.509,48.923C172.092,52.681 173.9,56.679 174.874,60.907C175.032,61.544 175.155,62.265 175.155,63.023C175.155,64.659 174.478,66.144 173.302,67.222C172.285,68.153 171.085,68.613 170.107,68.864L169.386,69.089L169.358,69.061L151.957,73.601C151.284,73.815 150.361,74.066 149.417,74.066C148.397,74.066 146.847,73.809 145.583,72.545C145.503,72.465 145.427,72.383 145.354,72.301C145.1,72.135 144.85,71.936 144.611,71.697C143.458,70.544 143.224,69.13 143.224,68.201L143.224,66.573L143.257,66.438L143.334,66.125C143.337,66.112 143.342,66.076 143.348,66.013C143.358,65.903 143.368,65.724 143.368,65.464L143.361,65.056C143.282,63.037 142.621,61.281 141.336,59.674C140.365,58.461 138.68,57.527 135.431,57.527C132.671,57.527 130.9,58.359 129.644,59.728C128.043,61.474 126.77,63.838 125.936,66.98C125.155,70.204 124.757,73.633 124.757,77.276L124.763,78.09C124.831,82.145 125.405,85.969 126.47,89.574C127.546,93.216 129.229,96.045 131.44,98.201C133.435,99.975 136.301,101.058 140.472,101.058C143.817,101.058 147.582,100.242 150.132,98.823C152.67,97.319 154.793,95.334 156.516,92.823L156.856,92.312C157.939,90.555 159.742,89.535 161.839,89.535L161.859,89.535L162.058,89.538L162.071,89.538L162.084,89.539C163.263,89.586 164.378,89.97 165.339,90.656L168.998,93.353L169.041,93.383L169.059,93.395L169.076,93.408L169.117,93.439L169.121,93.442C169.734,93.901 170.528,94.513 171.079,94.969ZM117.336,126.062L76.364,126.062C75.112,126.062 73.622,125.747 72.466,124.591C71.31,123.435 70.994,121.944 70.994,120.691L70.994,115.951C70.994,115.42 71.027,114.873 71.122,114.349C71.212,113.855 71.392,113.184 71.815,112.55L71.86,112.48L71.91,112.413C72.564,111.541 73.445,111.098 74.179,110.872C74.907,110.648 75.666,110.581 76.364,110.581C78.406,110.581 80.502,109.842 82.706,108.079L82.751,108.044C84.861,106.42 85.688,104.672 85.689,102.68C85.689,102.231 85.625,101.869 85.526,101.574L85.452,101.351L85.413,101.119C85.333,100.64 85.21,100.096 85.037,99.482L80.901,88.142L41.83,88.142L37.833,99.466C37.669,100.052 37.546,100.633 37.464,101.208L37.459,101.242L37.453,101.276C37.369,101.779 37.336,102.191 37.336,102.521C37.336,104.927 38.243,106.717 40.214,108.157C42.563,109.874 44.696,110.581 46.66,110.581C47.378,110.581 48.176,110.642 48.925,110.872C49.615,111.085 50.673,111.577 51.311,112.714C51.661,113.298 51.821,113.897 51.903,114.349C51.999,114.873 52.03,115.42 52.03,115.951L52.03,120.691C52.03,121.944 51.714,123.435 50.559,124.591C49.403,125.746 47.912,126.061 46.66,126.062L6.318,126.062C5.066,126.062 3.575,125.747 2.419,124.591C1.263,123.435 0.948,121.944 0.948,120.691L0.948,115.951C0.948,115.42 0.98,114.873 1.075,114.349C1.165,113.855 1.346,113.184 1.769,112.55L1.814,112.48L1.864,112.413C2.518,111.542 3.399,111.098 4.133,110.872C4.861,110.648 5.62,110.581 6.318,110.581C8.691,110.581 10.861,109.464 11.784,107.741L11.803,107.705L11.823,107.669C13.401,104.907 14.913,101.545 16.345,97.558L16.355,97.532L50.324,5.576C50.678,4.511 51.29,3.467 52.304,2.692C53.379,1.87 54.626,1.562 55.824,1.562L74.942,1.562C76.091,1.562 77.303,1.831 78.371,2.585C79.403,3.313 80.05,4.32 80.426,5.377L99.144,53.875C95.075,60.311 92.755,68.1 92.001,77.044L91.999,77.074L91.998,77.085L91.998,77.091C91.505,83.747 92.183,90.248 94.041,96.564C95.899,102.881 98.822,108.613 102.81,113.723C106.789,118.82 111.642,122.942 117.336,126.062ZM48.846,68.396L73.636,68.396L60.946,34.088L48.846,68.396ZM162.952,37.959C162.928,37.615 162.919,37.289 162.919,36.998L162.919,34.481C162.919,32.642 163.839,31.722 165.678,31.722L180.102,31.722L180.102,19.401C180.102,17.808 180.654,16.704 181.757,16.091C184.454,14.62 188.009,12.597 192.423,10.023C196.836,7.326 199.347,5.97 204.192,2.828C204.482,2.639 204.744,2.459 205.112,2.459C205.353,2.46 205.599,2.533 205.679,2.76C205.813,3.138 205.847,3.745 205.847,4.011L205.847,31.722L230.489,31.722C232.328,31.722 233.248,32.642 233.248,34.481L233.248,42.388C233.248,44.227 232.328,45.147 230.489,45.147L205.847,45.147L205.847,96.741C205.847,101.522 206.583,104.832 208.054,106.671C209.526,108.387 211.365,109.246 213.571,109.246C215.655,109.246 217.862,108.694 220.191,107.59C222.521,106.364 224.666,105.139 226.628,103.913C227.486,103.422 228.16,103.177 228.65,103.177C229.386,103.177 230.06,103.667 230.673,104.648L233.615,109.429C233.983,109.92 234.167,110.471 234.167,111.084C234.167,111.82 233.677,112.494 232.696,113.107L227.179,116.601C223.869,118.685 219.885,120.647 215.226,122.486C210.568,124.202 205.908,125.06 201.25,125.06C197.572,125.06 194.077,124.202 190.767,122.486C187.58,120.77 185.006,117.889 183.045,113.843C181.083,109.675 179.264,103.895 179.264,96.662L178.264,62.642C178.193,61.884 178.138,61.353 178.091,60.979C178.044,60.401 177.94,59.85 177.815,59.349C176.767,54.801 174.822,50.5 172.044,46.458C169.71,43.063 166.646,40.243 162.952,37.959ZM242.289,89.72C247.903,89.72 252.454,94.159 252.454,99.634C252.454,105.11 247.903,109.548 242.289,109.548C236.675,109.548 232.124,105.11 232.124,99.634C232.124,94.159 236.675,89.72 242.289,89.72Z" style="fill:rgb(75,40,64);"/>
        </g>
    </g>
</svg>
